# xmcd CD database file
#
# Track frame offsets:
#	150
#	39970
#	64637
#	76680
#	93582
#	110377
#	142795
#	151912
#	172910
#	181685
#	206140
#
# Disc length: 2954 seconds
#
# Revision: 0
# Processed by: cddbd v1.5.2PL0 Copyright (c) Steve Scherf et al.
# Submitted via: CDex 1.51
#
DISCID=7a0b880b
DTITLE=Ensemble Nimbus - Scapegoat
DYEAR=1900
DGENRE=Jazz
TTITLE0=Burning Arrows
TTITLE1=Three Figures
TTITLE2=Empty Chairs
TTITLE3=Algebra Of Needs
TTITLE4=Useless Passion
TTITLE5=Offering
TTITLE6=The Cross Of Infamy
TTITLE7=Trial By Error
TTITLE8=Middle Of The Moment
TTITLE9=Wooden Tuxedo
TTITLE10=Epigram
EXTD=
EXTT0=
EXTT1=
EXTT2=
EXTT3=
EXTT4=
EXTT5=
EXTT6=
EXTT7=
EXTT8=
EXTT9=
EXTT10=
PLAYORDER=
